# xmcd
# 
# Track frame offsets:
#     150
#     15380
#     29800
#     43180
#     57032
#     69737
#     84140
#     99687
#     112195
#     125295
#     143742
#     162832
#     176310
#     190205
#     201987
#     212682
#     226460
#     237607
#     250982
#     269497
#     283915
#     300225
#     314012
# 
# Disc length: 4402
# 
# Revision: 6
# Processed by: cddbd v1.5.2PL0 Copyright (c) Steve Scherf et al.
# Submitted via: fre:ac v1.1beta1pre5
# 
DISCID=54113017
DTITLE=Don Williams - The Very Best Of Don Williams
DYEAR=1997
DGENRE=Country
TTITLE0=I Recall A Gypsy Woman
TTITLE1=Amanda
TTITLE2=Shelter Of Your Eyes
TTITLE3=We Should Be Together
TTITLE4=You're My Best Friend
TTITLE5=Tulsa Time
TTITLE6='Till The Rivers All Run Dry
TTITLE7=Some Broken Hearts Never Mend
TTITLE8=Lay Down Beside Me
TTITLE9=I Believe In You
TTITLE10=Good Ole Boys Like Me
TTITLE11=I Wouldn't Want To Live If You Didn't Love Me
TTITLE12=I'm Just A Country Boy
TTITLE13=The Ties That Bind
TTITLE14=(Turn Out The Lights) And Love Me Tonight
TTITLE15=Say It Again
TTITLE16=It Must Be Love
TTITLE17=Love Me Over Again
TTITLE18=Lord, I Hope This Day Is Good
TTITLE19=If Hollywood Don't Need You
TTITLE20=Love Is On A Roll
TTITLE21=Stay Young
TTITLE22=That's The Thing About Love
EXTD=CDDBSort:williams_don,very_best_of_don_williams - YEAR: 1997
EXTT0=
EXTT1=
EXTT2=
EXTT3=
EXTT4=
EXTT5=
EXTT6=
EXTT7=
EXTT8=
EXTT9=
EXTT10=
EXTT11=
EXTT12=
EXTT13=
EXTT14=
EXTT15=
EXTT16=
EXTT17=
EXTT18=
EXTT19=
EXTT20=
EXTT21=
EXTT22=
PLAYORDER=
